<svg width="18" height="18" viewBox="0 0 18 18" fill="none" xmlns="http://www.w3.org/2000/svg">
<path d="M2.2 12.8L1.84645 12.4464L1.75483 12.5381L1.71924 12.6626L2.2 12.8ZM14 1L14.3536 0.646447L14 0.292893L13.6464 0.646447L14 1ZM17 4L17.3536 4.35355L17.7071 4L17.3536 3.64645L17 4ZM5.2 15.8L5.33736 16.2808L5.46194 16.2452L5.55355 16.1536L5.2 15.8ZM1 17L0.519238 16.8626C0.469353 17.0372 0.518048 17.2252 0.646447 17.3536C0.774846 17.482 0.962764 17.5306 1.13736 17.4808L1 17ZM2.55355 13.1536L14.3536 1.35355L13.6464 0.646447L1.84645 12.4464L2.55355 13.1536ZM13.6464 1.35355L16.6464 4.35355L17.3536 3.64645L14.3536 0.646447L13.6464 1.35355ZM16.6464 3.64645L4.84645 15.4464L5.55355 16.1536L17.3536 4.35355L16.6464 3.64645ZM5.06264 15.3192L0.862639 16.5192L1.13736 17.4808L5.33736 16.2808L5.06264 15.3192ZM1.48076 17.1374L2.68076 12.9374L1.71924 12.6626L0.519238 16.8626L1.48076 17.1374Z" fill="#5DAAFF"/>
</svg>
